<?xml version="1.0" encoding="UTF-8" standalone="no"?>
<svg
   xmlns:dc="http://purl.org/dc/elements/1.1/"
   xmlns:cc="http://creativecommons.org/ns#"
   xmlns:rdf="http://www.w3.org/1999/02/22-rdf-syntax-ns#"
   xmlns:svg="http://www.w3.org/2000/svg"
   xmlns="http://www.w3.org/2000/svg"
   xmlns:sodipodi="http://sodipodi.sourceforge.net/DTD/sodipodi-0.dtd"
   xmlns:inkscape="http://www.inkscape.org/namespaces/inkscape"
   width="190.5mm"
   height="171.97917mm"
   viewBox="0 0 190.5 171.97917"
   version="1.1"
   id="svg951"
   inkscape:version="1.0beta2 (2b71d25, 2019-12-03)"
   sodipodi:docname="challenge-threat-threat.svg">
  <defs
     id="defs945" />
  <sodipodi:namedview
     id="base"
     pagecolor="#ffffff"
     bordercolor="#666666"
     borderopacity="1.0"
     inkscape:pageopacity="0.0"
     inkscape:pageshadow="2"
     inkscape:zoom="1.0294055"
     inkscape:cx="145.56175"
     inkscape:cy="396.86535"
     inkscape:document-units="mm"
     inkscape:current-layer="g927"
     inkscape:document-rotation="0"
     showgrid="false"
     showguides="true"
     inkscape:guide-bbox="true"
     inkscape:window-width="1920"
     inkscape:window-height="1155"
     inkscape:window-x="0"
     inkscape:window-y="23"
     inkscape:window-maximized="0"
     inkscape:snap-to-guides="false">
    <sodipodi:guide
       position="204.94988,85.856618"
       orientation="0,-1"
       id="guide1535" />
    <sodipodi:guide
       position="95.342203,178.15372"
       orientation="1,0"
       id="guide1537" />
    <sodipodi:guide
       position="198.22723,0.27914301"
       orientation="0,-1"
       id="guide921" />
    <sodipodi:guide
       position="163.98219,63.771489"
       orientation="0,-1"
       id="guide1239" />
  </sodipodi:namedview>
  <metadata
     id="metadata948">
    <rdf:RDF>
      <cc:Work
         rdf:about="">
        <dc:format>image/svg+xml</dc:format>
        <dc:type
           rdf:resource="http://purl.org/dc/dcmitype/StillImage" />
        <dc:title />
      </cc:Work>
    </rdf:RDF>
  </metadata>
  <g
     sodipodi:insensitive="true"
     style="display:inline"
     inkscape:label="Hexagon red"
     id="g927"
     inkscape:groupmode="layer">
    <path
       transform="matrix(1.2066709,-0.00469952,0.00495273,1.1449831,-24.867966,-27.845406)"
       inkscape:transform-center-y="-8.6800621"
       inkscape:transform-center-x="0.016326977"
       d="M 145.71791,171.65229 52.233752,171.32006 23.661522,82.30868 99.487076,27.628844 174.92207,82.846232 Z"
       inkscape:randomized="0"
       inkscape:rounded="0"
       inkscape:flatsided="true"
       sodipodi:arg2="1.5743501"
       sodipodi:arg1="0.9460316"
       sodipodi:r2="64.335365"
       sodipodi:r1="79.522881"
       sodipodi:cy="107.15122"
       sodipodi:cx="99.204468"
       sodipodi:sides="5"
       id="path925"
       style="fill:#7d1821;fill-opacity:1;stroke:#000000;stroke-width:6.80601;stroke-linejoin:bevel;stroke-miterlimit:4;stroke-dasharray:none;stroke-opacity:0.995968;paint-order:normal"
       sodipodi:type="star" />
  </g>
  <g
     sodipodi:insensitive="true"
     inkscape:label="icons"
     id="layer8"
     inkscape:groupmode="layer"
     style="display:inline">
    <g
       transform="matrix(4.906406,0,0,4.906406,62.740387,29.140072)"
       inkscape:label="Icon"
       id="layer2-0">
      <path
         sodipodi:nodetypes="cccccccccc"
         inkscape:connector-curvature="0"
         id="path851"
         d="M 6.5982164,0.26726951 C 6.8080656,1.1906629 7.1356368,2.0895308 7.8760988,2.9023799 9.8864779,3.5253472 12.149626,4.9882483 11.53435,9.2375028 c 0.407559,0.8239602 0.72028,1.6584582 1.670435,2.4221302 -0.682026,-0.268934 -1.430662,-0.499011 -2.856443,-0.334087 -2.0668211,1.575462 -4.249714,2.705983 -7.4334338,0 C 1.8902504,11.138578 0.95779206,11.274308 0.05846521,11.525998 0.84503983,10.990145 1.323135,10.145813 1.6704345,9.1706855 1.1820174,5.6087746 2.6010041,3.6668504 5.3620947,2.8647953 6.0502394,1.9989534 6.4668755,1.1331114 6.5982164,0.26726951 Z"
         style="fill:#ffffff;fill-opacity:1;stroke:#000000;stroke-width:0.40763;stroke-linecap:butt;stroke-linejoin:miter;stroke-miterlimit:4;stroke-dasharray:none;stroke-opacity:1" />
      <path
         sodipodi:nodetypes="cccccccccc"
         inkscape:connector-curvature="0"
         id="path855"
         d="M 8.0556176,4.0396204 C 9.9625666,5.0114621 10.818233,6.5089453 10.583333,8.5517113 9.3868185,8.7573672 8.3944685,8.63636 7.5122767,8.3390996 8.2712199,9.1743395 8.9659008,10.01672 9.1659225,10.914062 8.3685391,12.130116 4.9278181,12.228344 4.157738,10.937686 3.748183,10.86364 5.3644051,8.27586 5.7641368,8.2446055 4.7089533,8.5483911 3.6537698,8.7527976 2.5985863,8.4335936 2.4650886,6.4730266 3.1675524,4.9304403 5.1735489,4.0396204 6.0031903,4.9058159 6.4778888,5.7720113 6.6145832,6.6382068 6.8473046,5.7910593 7.0288675,4.947847 8.0556176,4.0396204 Z"
         style="fill:#7d1821;fill-opacity:1;stroke:#000000;stroke-width:0.40763;stroke-linecap:butt;stroke-linejoin:miter;stroke-miterlimit:4;stroke-dasharray:none;stroke-opacity:1" />
    </g>
    <g
       id="layer2-0-3"
       inkscape:label="Icon"
       transform="matrix(4.9064061,0,0,4.9064061,62.792204,96.399967)">
      <path
         style="fill:#ffffff;fill-opacity:1;stroke:#000000;stroke-width:0.40763;stroke-linecap:butt;stroke-linejoin:miter;stroke-miterlimit:4;stroke-dasharray:none;stroke-opacity:1"
         d="M 6.5982164,0.26726951 C 6.8080656,1.1906629 7.1356368,2.0895308 7.8760988,2.9023799 9.8864779,3.5253472 12.149626,4.9882483 11.53435,9.2375028 c 0.407559,0.8239602 0.72028,1.6584582 1.670435,2.4221302 -0.682026,-0.268934 -1.430662,-0.499011 -2.856443,-0.334087 -2.0668211,1.575462 -4.249714,2.705983 -7.4334338,0 C 1.8902504,11.138578 0.95779206,11.274308 0.05846521,11.525998 0.84503983,10.990145 1.323135,10.145813 1.6704345,9.1706855 1.1820174,5.6087746 2.6010041,3.6668504 5.3620947,2.8647953 6.0502394,1.9989534 6.4668755,1.1331114 6.5982164,0.26726951 Z"
         id="path851-9"
         inkscape:connector-curvature="0"
         sodipodi:nodetypes="cccccccccc" />
      <path
         style="fill:#7d1821;fill-opacity:1;stroke:#000000;stroke-width:0.40763;stroke-linecap:butt;stroke-linejoin:miter;stroke-miterlimit:4;stroke-dasharray:none;stroke-opacity:1"
         d="M 8.0556176,4.0396204 C 9.9625666,5.0114621 10.818233,6.5089453 10.583333,8.5517113 9.3868185,8.7573672 8.3944685,8.63636 7.5122767,8.3390996 8.2712199,9.1743395 8.9659008,10.01672 9.1659225,10.914062 8.3685391,12.130116 4.9278181,12.228344 4.157738,10.937686 3.748183,10.86364 5.3644051,8.27586 5.7641368,8.2446055 4.7089533,8.5483911 3.6537698,8.7527976 2.5985863,8.4335936 2.4650886,6.4730266 3.1675524,4.9304403 5.1735489,4.0396204 6.0031903,4.9058159 6.4778888,5.7720113 6.6145832,6.6382068 6.8473046,5.7910593 7.0288675,4.947847 8.0556176,4.0396204 Z"
         id="path855-8"
         inkscape:connector-curvature="0"
         sodipodi:nodetypes="cccccccccc" />
    </g>
  </g>
  <inkscape:templateinfo>
    <inkscape:name>Genesys Dice</inkscape:name>
    <inkscape:author>Christian Nikolajsen</inkscape:author>
    <inkscape:date>2019-12-20</inkscape:date>
  </inkscape:templateinfo>
  <inkscape:templateinfo>
    <inkscape:name>Genesys dice</inkscape:name>
    <inkscape:date>2019-12-21</inkscape:date>
  </inkscape:templateinfo>
</svg>
