<?xml version="1.0" encoding="UTF-8" standalone="no"?>
<svg
   xmlns:dc="http://purl.org/dc/elements/1.1/"
   xmlns:cc="http://creativecommons.org/ns#"
   xmlns:rdf="http://www.w3.org/1999/02/22-rdf-syntax-ns#"
   xmlns:svg="http://www.w3.org/2000/svg"
   xmlns="http://www.w3.org/2000/svg"
   xmlns:sodipodi="http://sodipodi.sourceforge.net/DTD/sodipodi-0.dtd"
   xmlns:inkscape="http://www.inkscape.org/namespaces/inkscape"
   sodipodi:docname="challenge-despair.svg"
   inkscape:version="1.0beta2 (2b71d25, 2019-12-03)"
   id="svg951"
   version="1.1"
   viewBox="0 0 190.5 171.97917"
   height="650"
   width="720">
  <defs
     id="defs945" />
  <sodipodi:namedview
     inkscape:snap-to-guides="false"
     inkscape:window-maximized="0"
     inkscape:window-y="23"
     inkscape:window-x="0"
     inkscape:window-height="1155"
     inkscape:window-width="1920"
     inkscape:guide-bbox="true"
     showguides="true"
     showgrid="false"
     inkscape:document-rotation="0"
     inkscape:current-layer="g927"
     inkscape:document-units="mm"
     inkscape:cy="311.36937"
     inkscape:cx="82.947845"
     inkscape:zoom="1.4536681"
     inkscape:pageshadow="2"
     inkscape:pageopacity="0.0"
     borderopacity="1.0"
     bordercolor="#666666"
     pagecolor="#ffffff"
     id="base"
     units="px">
    <sodipodi:guide
       id="guide1535"
       orientation="0,-1"
       position="204.94988,85.856618" />
    <sodipodi:guide
       id="guide1537"
       orientation="1,0"
       position="95.373674,175.25536" />
    <sodipodi:guide
       id="guide921"
       orientation="0,-1"
       position="198.22723,0.27914301" />
    <sodipodi:guide
       id="guide1239"
       orientation="0,-1"
       position="163.98219,63.771489" />
  </sodipodi:namedview>
  <metadata
     id="metadata948">
    <rdf:RDF>
      <cc:Work
         rdf:about="">
        <dc:format>image/svg+xml</dc:format>
        <dc:type
           rdf:resource="http://purl.org/dc/dcmitype/StillImage" />
        <dc:title />
      </cc:Work>
    </rdf:RDF>
  </metadata>
  <g
     sodipodi:insensitive="true"
     inkscape:groupmode="layer"
     id="g927"
     inkscape:label="Hexagon red"
     style="display:inline">
    <path
       sodipodi:type="star"
       style="fill:#7d1821;fill-opacity:1;stroke:#000000;stroke-width:6.80601;stroke-linejoin:bevel;stroke-miterlimit:4;stroke-dasharray:none;stroke-opacity:0.995968;paint-order:normal"
       id="path925"
       sodipodi:sides="5"
       sodipodi:cx="99.204468"
       sodipodi:cy="107.15122"
       sodipodi:r1="79.522881"
       sodipodi:r2="64.335365"
       sodipodi:arg1="0.9460316"
       sodipodi:arg2="1.5743501"
       inkscape:flatsided="true"
       inkscape:rounded="0"
       inkscape:randomized="0"
       d="M 145.71791,171.65229 52.233752,171.32006 23.661522,82.30868 99.487076,27.628844 174.92207,82.846232 Z"
       inkscape:transform-center-x="0.016326977"
       inkscape:transform-center-y="-8.6800621"
       transform="matrix(1.2066709,-0.00469952,0.00495273,1.1449831,-24.867966,-27.845406)" />
  </g>
  <g
     inkscape:groupmode="layer"
     id="layer1"
     inkscape:label="Despair">
    <path
       inkscape:connector-curvature="0"
       id="path1040"
       d="m 87.457743,141.85722 -7.675823,-7.84349 -1.037969,-0.40063 c -5.133181,-1.98117 -9.72072,-4.70274 -13.226569,-7.84665 -0.532246,-0.47747 -1.033896,-0.84471 -1.122603,-0.82207 -0.09051,0.0227 -2.800716,1.85345 -6.027771,4.06885 -3.227053,2.21541 -5.885927,4.00944 -5.908555,3.98673 -0.02715,-0.0227 1.772069,-2.68283 3.98849,-5.9114 2.216422,-3.22856 4.033297,-5.94626 4.037551,-6.03933 0.0044,-0.0931 -0.5069,-0.7426 -1.135094,-1.44339 -2.449144,-2.73038 -3.936624,-4.87746 -5.32698,-7.68923 -0.840911,-1.69999 -1.644348,-3.78646 -2.025609,-5.25883 -0.103192,-0.3991 -1.0014,-1.32579 -8.289269,-8.554348 l -8.173316,-8.106843 8.115204,-8.282842 8.115111,-8.282829 0.443538,-1.156415 c 1.496805,-3.905139 3.937439,-7.842406 7.458225,-12.031515 0.900654,-1.071814 1.003028,-1.235126 0.903368,-1.443389 -0.06336,-0.129173 -1.912734,-2.784821 -4.112862,-5.90147 -2.200219,-3.116641 -3.990302,-5.680769 -3.977991,-5.698059 0.009,-0.01719 2.749119,1.774913 6.081718,3.982681 3.332598,2.207758 6.092942,4.013012 6.134127,4.011672 0.04526,-0.0014 0.459832,-0.347225 0.930163,-0.768768 4.093852,-3.667696 8.582094,-6.256943 13.037387,-7.521306 l 1.029097,-0.29201 3.662264,-3.80675 c 2.014299,-2.093715 5.291413,-5.51476 7.282436,-7.602318 1.991041,-2.087571 3.822292,-4.004116 4.069502,-4.258996 l 0.449867,-0.463452 8.47589,7.947645 8.47583,7.947654 1.29667,0.491061 c 4.43981,1.681415 8.70239,4.341854 12.23069,7.633656 0.48607,0.453495 0.94311,0.801446 1.0157,0.773384 0.0724,-0.02807 2.74767,-1.839712 5.94459,-4.025721 3.1969,-2.186007 5.83133,-3.955795 5.85425,-3.932867 0.0182,0.02262 -1.09564,1.649218 -2.48572,3.613983 -4.58166,6.475615 -5.49255,7.776548 -5.49255,7.844363 0,0.03711 0.47342,0.654446 1.05246,1.372324 3.66362,4.543878 5.88829,8.310109 7.28236,12.328535 l 0.48607,1.400701 7.8499,8.059065 7.84998,8.059066 -7.87841,7.807413 c -4.3331,4.294055 -7.8776,7.875725 -7.8766,7.959215 0.002,0.29953 -1.21457,3.19477 -2.03836,4.84557 -1.70753,3.4216 -3.76799,6.52243 -6.42126,9.66343 -0.40371,0.47767 -0.73319,0.8992 -0.73319,0.93686 0,0.038 1.85589,2.7185 4.12417,5.95748 2.26839,3.23899 4.10871,5.90317 4.08961,5.9204 -0.0182,0.0172 -2.58457,-1.79517 -5.70127,-4.02758 -3.11663,-2.2324 -5.77108,-4.10931 -5.8987,-4.17089 -0.20548,-0.099 -0.3476,-0.008 -1.22951,0.78498 -3.73577,3.35938 -7.08555,5.38495 -12.4377,7.5209 l -2.03141,0.81068 -4.7578,4.7277 c -2.61685,2.60022 -6.17721,6.13239 -7.911878,7.84924 l -3.154092,3.12159 z m 12.43359,-11.76125 c 5.022127,-0.64314 10.117557,-2.42918 15.182307,-5.3217 1.03452,-0.59081 4.72548,-3.00267 5.3459,-3.49327 0.17289,-0.13651 0.22992,-0.24585 0.16021,-0.30886 -0.26522,-0.24168 -24.990153,-16.80704 -25.085833,-16.80704 -0.1557,0 -24.791217,16.47105 -24.791217,16.57516 0,0.11999 1.803751,1.44175 3.435246,2.51736 6.393823,4.21555 12.479611,6.43018 19.338243,7.03728 1.030184,0.0913 5.14609,-0.0361 6.414974,-0.19895 z m 27.545507,-16.01653 c 4.98619,-6.88429 7.71268,-13.36362 8.55422,-20.32889 0.23174,-1.914991 0.2263,-5.64881 -0.009,-7.547573 -0.74134,-5.946628 -2.75845,-11.396176 -6.37048,-17.213729 -1.00754,-1.622814 -2.69064,-4.009399 -2.82751,-4.009399 -0.13759,0 -17.06886,25.194539 -17.03138,25.344151 0.0634,0.243304 16.60586,24.95095 16.7095,24.95342 0.0543,10e-4 0.49785,-0.53767 0.97643,-1.19798 z m -54.095814,-11.331 c 4.573871,-6.83601 8.316428,-12.525359 8.316701,-12.642981 5.45e-4,-0.172889 -16.159534,-24.371071 -16.820949,-25.187912 -0.190088,-0.234619 -0.190994,-0.233719 -1.053539,0.982926 -3.832348,5.405203 -6.477914,11.059181 -7.672209,16.396642 -0.56302,2.515376 -0.717807,3.8829 -0.773927,6.846103 -0.04526,2.176648 -0.0181,3.116253 0.124918,4.330155 0.716901,6.24339 2.985643,12.119297 7.038945,18.229427 0.760349,1.14676 2.435113,3.47481 2.499109,3.47481 0.0181,0 3.767084,-5.59311 8.341045,-12.42917 z M 108.56477,67.351898 c 6.44632,-4.331464 11.82318,-7.960249 11.94855,-8.063955 0.2263,-0.187192 0.21904,-0.194705 -0.92194,-1.007999 -6.33017,-4.511168 -12.6896,-7.23507 -19.2155,-8.230487 -1.820401,-0.277709 -5.670367,-0.381713 -7.647368,-0.206652 -6.105159,0.540483 -12.385833,2.817099 -18.230033,6.607936 -1.3632,0.884178 -4.22429,2.925963 -4.219855,3.01133 0.002,0.0362 5.643159,3.822925 12.536104,8.415925 l 12.532639,8.350913 0.748577,-0.500748 c 0.411857,-0.275445 6.022696,-4.044717 12.469016,-8.376181 z"
       style="opacity:1;fill:#000000;fill-opacity:1;stroke:none;stroke-width:0.0106918;stroke-miterlimit:4;stroke-dasharray:none" />
    <path
       transform="scale(0.26458333)"
       inkscape:connector-curvature="0"
       id="path853"
       d="m 330.54717,535.57739 -28.49841,-29.21984 -5.50332,-2.17851 c -15.71183,-6.21958 -32.09238,-15.69508 -44.67707,-25.84392 -4.36922,-3.52353 -8.1285,-6.40641 -8.35397,-6.40641 -0.36769,0 -31.82826,21.12684 -39.23615,26.3484 -1.6435,1.15844 -3.14801,1.94644 -3.34334,1.7511 -0.19534,-0.19533 1.7522,-3.42462 4.32787,-7.1762 13.0046,-18.94173 23.52304,-34.74193 23.52304,-35.33497 0,-0.36517 -2.80997,-4.00491 -6.24437,-8.08829 -11.57738,-13.7651 -19.01518,-26.57743 -24.07771,-41.47613 l -2.22064,-6.53519 -30.66708,-30.78995 -30.66708,-30.78996 14.77804,-14.95638 c 8.12792,-8.22602 21.81004,-22.07632 30.40471,-30.77844 l 15.62666,-15.82204 2.47424,-6.19124 c 5.19803,-13.00693 13.38773,-26.43274 24.75017,-40.57428 3.59203,-4.47059 6.53097,-8.39169 6.53097,-8.71354 0,-0.32184 -6.53101,-9.89359 -14.51335,-21.27055 -7.98234,-11.37697 -14.40575,-20.7818 -14.27423,-20.89965 0.13151,-0.11784 6.58513,3.97624 14.34137,9.09796 7.75624,5.12172 17.58156,11.5815 21.83405,14.35506 l 7.7318,5.04285 4.65067,-3.94762 c 16.71902,-14.19159 31.16974,-22.51348 47.36383,-27.27591 l 4.87783,-1.43449 29.09016,-30.37502 29.09015,-30.37501 31.59561,29.6871 31.59561,29.6871 6.70507,2.78096 c 15.4665,6.41482 27.60927,13.72208 39.57198,23.81357 3.74073,3.15561 7.39746,6.17504 8.12606,6.70986 1.21555,0.89226 3.02612,-0.17581 21.97115,-12.96101 11.35554,-7.66337 20.81391,-13.76593 21.0186,-13.56124 0.2047,0.2047 -5.85518,9.19736 -13.46638,19.9837 -7.61121,10.78635 -13.83856,19.86922 -13.83856,20.18418 0,0.31495 2.63725,3.9651 5.86056,8.11144 12.19682,15.68953 20.25414,29.4749 25.08726,42.92215 l 2.33291,6.49094 29.5029,30.25661 29.5029,30.25661 -29.58468,29.63625 -29.58467,29.63625 -2.21237,5.80492 c -5.33039,13.98617 -15.82184,31.74138 -26.8769,45.48513 -2.97206,3.69488 -5.40374,7.0835 -5.40374,7.53027 0,0.44676 6.36216,9.95103 14.13812,21.12059 7.77596,11.16956 13.99419,20.45222 13.81829,20.62812 -0.17591,0.1759 -9.24672,-6.04181 -20.15737,-13.81714 -10.91066,-7.77533 -20.38951,-14.14594 -21.06413,-14.15692 -0.67462,-0.0109 -4.38936,2.64459 -8.25498,5.90126 -12.47608,10.51071 -24.85408,17.78312 -42.11206,24.74197 l -8.25498,3.32862 -29.85343,29.43836 c -16.41939,16.1911 -30.06263,29.43836 -30.31831,29.43836 -0.25568,0 -13.28916,-13.14893 -28.9633,-29.21984 z m 56.11512,-45.00634 c 14.48864,-3.01244 31.27906,-9.25881 44.45201,-16.53704 9.51446,-5.25686 24.68345,-15.29 24.68345,-16.32624 0,-0.44581 -2.86345,-2.79876 -6.36322,-5.22877 -15.11365,-10.49394 -87.9422,-58.97259 -88.59338,-58.97259 -0.57492,0 -85.71079,56.59869 -91.81862,61.0414 -0.91863,0.66819 -1.67997,1.5603 -1.69186,1.98244 -0.0119,0.42215 3.30617,3.10207 7.37347,5.95538 22.02498,15.45112 42.67779,24.38154 66.55577,28.77918 9.76521,1.79846 35.29177,1.40842 45.40238,-0.69376 z m 100.41129,-66.79638 c 32.58092,-48.80601 36.65934,-96.86039 12.4066,-146.18193 -6.579,-13.37936 -18.33977,-31.98804 -20.21659,-31.98804 -0.31164,0 -2.98181,3.47101 -5.93371,7.71336 -8.56815,12.31376 -58.07231,86.29649 -58.51417,87.44795 -0.25335,0.66023 10.67553,17.59354 29.67738,45.98238 16.54313,24.71552 30.87061,45.97819 31.83883,47.25038 l 1.76041,2.31308 1.62048,-1.96912 c 0.89126,-1.08302 4.20361,-5.83865 7.36077,-10.56806 z M 277.60101,388.29589 c 17.04062,-25.54051 30.98294,-46.97379 30.98294,-47.62951 0,-1.71064 -62.72624,-95.36429 -64.03347,-95.60542 -2.04904,-0.37796 -13.88634,18.40581 -21.23637,33.69849 -11.08624,23.06631 -15.08048,41.57919 -14.27482,66.1624 0.64926,19.81095 5.04738,36.4747 14.91107,56.49558 6.7717,13.74489 20.47817,34.66897 22.06695,33.68705 0.33042,-0.20421 14.54308,-21.26807 31.5837,-46.80859 z M 405.08228,258.54701 c 48.80873,-32.82076 51.60089,-34.7674 51.07917,-35.61155 -0.66247,-1.0719 -14.36665,-10.11047 -21.87112,-14.42506 -14.67375,-8.43646 -31.76126,-15.03525 -47.38689,-18.29967 -11.69686,-2.44365 -31.05481,-3.08744 -42.54791,-1.415 -25.18292,3.6645 -48.07382,13.39547 -72.47087,30.80751 -5.6607,4.04001 -6.62241,4.98575 -5.84728,5.7502 1.37906,1.36005 93.63899,62.90198 94.29884,62.90198 0.31119,0 20.44691,-13.36878 44.74606,-29.70841 z"
       style="fill:#ffffff;stroke-width:7.55905522;stroke:#000000;fill-opacity:1;stroke-opacity:1;stroke-miterlimit:4;stroke-dasharray:none;stroke-linejoin:round;stroke-linecap:butt" />
  </g>
  <inkscape:templateinfo>
    <inkscape:name>Genesys Dice</inkscape:name>
    <inkscape:author>Christian Nikolajsen</inkscape:author>
    <inkscape:date>2019-12-20</inkscape:date>
  </inkscape:templateinfo>
  <inkscape:templateinfo>
    <inkscape:name>Genesys dice</inkscape:name>
    <inkscape:date>2019-12-21</inkscape:date>
  </inkscape:templateinfo>
</svg>
